<?xml version="1.0" encoding="UTF-8" standalone="no"?>
<svg
   xmlns:dc="http://purl.org/dc/elements/1.1/"
   xmlns:cc="http://creativecommons.org/ns#"
   xmlns:rdf="http://www.w3.org/1999/02/22-rdf-syntax-ns#"
   xmlns:svg="http://www.w3.org/2000/svg"
   xmlns="http://www.w3.org/2000/svg"
   xmlns:sodipodi="http://sodipodi.sourceforge.net/DTD/sodipodi-0.dtd"
   xmlns:inkscape="http://www.inkscape.org/namespaces/inkscape"
   width="193.11096"
   height="30"
   viewBox="0 0 193.11096 30"
   version="1.1"
   id="svg18"
   sodipodi:docname="application_logo_accounts.svg"
   inkscape:version="0.92.1 r15371">
  <metadata
     id="metadata22">
    <rdf:RDF>
      <cc:Work
         rdf:about="">
        <dc:format>image/svg+xml</dc:format>
        <dc:type
           rdf:resource="http://purl.org/dc/dcmitype/StillImage" />
        <dc:title>3843F0C8-C281-4FA9-B377-02A54A8AAEDA@2x</dc:title>
      </cc:Work>
    </rdf:RDF>
  </metadata>
  <sodipodi:namedview
     pagecolor="#ffffff"
     bordercolor="#666666"
     borderopacity="1"
     objecttolerance="10"
     gridtolerance="10"
     guidetolerance="10"
     inkscape:pageopacity="0"
     inkscape:pageshadow="2"
     inkscape:window-width="1366"
     inkscape:window-height="704"
     id="namedview20"
     showgrid="false"
     inkscape:zoom="1.6507937"
     inkscape:cx="-44.163496"
     inkscape:cy="-64.485579"
     inkscape:window-x="0"
     inkscape:window-y="27"
     inkscape:window-maximized="1"
     inkscape:current-layer="g4541">
    <inkscape:grid
       type="xygrid"
       id="grid4506"
       originx="0"
       originy="0" />
  </sodipodi:namedview>
  <!-- Generator: sketchtool 50.2 (55047) - http://www.bohemiancoding.com/sketch -->
  <title
     id="title2">3843F0C8-C281-4FA9-B377-02A54A8AAEDA@2x</title>
  <desc
     id="desc4">Created with sketchtool.</desc>
  <defs
     id="defs6" />
  <g
     id="Design"
     style="fill:none;fill-rule:evenodd;stroke:none;stroke-width:1">
    <g
       id="g4541">
      <g
         transform="translate(-35,-84.25)"
         id="04-Dashboard" />
      <g
         id="g26">
        <g
           id="g4497">
          <g
             aria-label="ACCOUNTS"
             transform="translate(-35,-84.25)"
             style="font-style:normal;font-weight:normal;font-size:40px;line-height:1.25;font-family:sans-serif;letter-spacing:6px;word-spacing:0px;fill:#323743;fill-opacity:0.97647059;fill-rule:evenodd;stroke:none;stroke-width:1"
             id="text3696">
            <path
               d="m 107.68128,104.95872 h -2.51562 l -1,-2.60157 h -4.578128 l -0.945312,2.60157 h -2.453125 l 4.460935,-11.453128 h 2.44531 z m -4.25781,-4.53125 -1.57813,-4.250003 -1.54687,4.250003 z"
               style="font-style:normal;font-variant:normal;font-weight:bold;font-stretch:normal;font-size:16px;font-family:Arial;-inkscape-font-specification:'Arial, Bold';font-variant-ligatures:normal;font-variant-caps:normal;font-variant-numeric:normal;font-feature-settings:normal;text-align:start;letter-spacing:6px;writing-mode:lr-tb;text-anchor:start;fill:#323743;fill-opacity:0.97647059"
               id="path4516" />
            <path
               d="m 122.27503,100.74778 2.24219,0.71094 q -0.51563,1.875 -1.71875,2.78906 -1.19531,0.90625 -3.03906,0.90625 -2.28125,0 -3.75,-1.55469 -1.46875,-1.5625 -1.46875,-4.265623 0,-2.859375 1.47656,-4.4375 1.47656,-1.585937 3.88281,-1.585937 2.10156,0 3.41406,1.242187 0.78125,0.734375 1.17188,2.109375 l -2.28906,0.546875 q -0.20313,-0.890625 -0.85157,-1.40625 -0.64062,-0.515625 -1.5625,-0.515625 -1.27343,0 -2.07031,0.914063 -0.78906,0.914062 -0.78906,2.960937 0,2.171878 0.78125,3.093748 0.78125,0.92188 2.03125,0.92188 0.92187,0 1.58594,-0.58594 0.66406,-0.58594 0.95312,-1.84375 z"
               style="font-style:normal;font-variant:normal;font-weight:bold;font-stretch:normal;font-size:16px;font-family:Arial;-inkscape-font-specification:'Arial, Bold';font-variant-ligatures:normal;font-variant-caps:normal;font-variant-numeric:normal;font-feature-settings:normal;text-align:start;letter-spacing:6px;writing-mode:lr-tb;text-anchor:start;fill:#323743;fill-opacity:0.97647059"
               id="path4518" />
            <path
               d="m 139.83753,100.74778 2.24219,0.71094 q -0.51563,1.875 -1.71875,2.78906 -1.19531,0.90625 -3.03906,0.90625 -2.28125,0 -3.75,-1.55469 -1.46875,-1.5625 -1.46875,-4.265623 0,-2.859375 1.47656,-4.4375 1.47656,-1.585937 3.88281,-1.585937 2.10156,0 3.41406,1.242187 0.78125,0.734375 1.17188,2.109375 l -2.28906,0.546875 q -0.20313,-0.890625 -0.85157,-1.40625 -0.64062,-0.515625 -1.5625,-0.515625 -1.27343,0 -2.07031,0.914063 -0.78906,0.914062 -0.78906,2.960937 0,2.171878 0.78125,3.093748 0.78125,0.92188 2.03125,0.92188 0.92187,0 1.58594,-0.58594 0.66406,-0.58594 0.95312,-1.84375 z"
               style="font-style:normal;font-variant:normal;font-weight:bold;font-stretch:normal;font-size:16px;font-family:Arial;-inkscape-font-specification:'Arial, Bold';font-variant-ligatures:normal;font-variant-caps:normal;font-variant-numeric:normal;font-feature-settings:normal;text-align:start;letter-spacing:6px;writing-mode:lr-tb;text-anchor:start;fill:#323743;fill-opacity:0.97647059"
               id="path4520" />
            <path
               d="m 149.60316,99.302467 q 0,-1.75 0.52343,-2.9375 0.39063,-0.875 1.0625,-1.570312 0.67969,-0.695313 1.48438,-1.03125 1.07031,-0.453125 2.46875,-0.453125 2.53125,0 4.04687,1.570312 1.52344,1.570313 1.52344,4.367188 0,2.77344 -1.50781,4.34375 -1.50781,1.5625 -4.03125,1.5625 -2.55469,0 -4.0625,-1.55469 -1.50781,-1.5625 -1.50781,-4.296873 z m 2.38281,-0.07813 q 0,1.945308 0.89844,2.953128 0.89843,1 2.28125,1 1.38281,0 2.26562,-0.99219 0.89063,-1 0.89063,-2.992188 0,-1.96875 -0.86719,-2.9375 -0.85938,-0.96875 -2.28906,-0.96875 -1.42969,0 -2.30469,0.984375 -0.875,0.976563 -0.875,2.953125 z"
               style="font-style:normal;font-variant:normal;font-weight:bold;font-stretch:normal;font-size:16px;font-family:Arial;-inkscape-font-specification:'Arial, Bold';font-variant-ligatures:normal;font-variant-caps:normal;font-variant-numeric:normal;font-feature-settings:normal;text-align:start;letter-spacing:6px;writing-mode:lr-tb;text-anchor:start;fill:#323743;fill-opacity:0.97647059"
               id="path4522" />
            <path
               d="m 168.49378,93.505592 h 2.3125 v 6.203125 q 0,1.476563 0.0859,1.914063 0.14844,0.70312 0.70312,1.13281 0.5625,0.42188 1.53125,0.42188 0.98438,0 1.48438,-0.39844 0.5,-0.40625 0.60156,-0.99219 0.10156,-0.58594 0.10156,-1.94531 v -6.335938 h 2.3125 v 6.015625 q 0,2.062503 -0.1875,2.914063 -0.1875,0.85156 -0.69531,1.4375 -0.5,0.58594 -1.34375,0.9375 -0.84375,0.34375 -2.20312,0.34375 -1.64063,0 -2.49219,-0.375 -0.84375,-0.38281 -1.33594,-0.98438 -0.49219,-0.60937 -0.64844,-1.27343 -0.22656,-0.98438 -0.22656,-2.906253 z"
               style="font-style:normal;font-variant:normal;font-weight:bold;font-stretch:normal;font-size:16px;font-family:Arial;-inkscape-font-specification:'Arial, Bold';font-variant-ligatures:normal;font-variant-caps:normal;font-variant-numeric:normal;font-feature-settings:normal;text-align:start;letter-spacing:6px;writing-mode:lr-tb;text-anchor:start;fill:#323743;fill-opacity:0.97647059"
               id="path4524" />
            <path
               d="M 186.09534,104.95872 V 93.505592 h 2.25 l 4.6875,7.648438 v -7.648438 h 2.14844 v 11.453128 h -2.32031 l -4.61719,-7.468753 v 7.468753 z"
               style="font-style:normal;font-variant:normal;font-weight:bold;font-stretch:normal;font-size:16px;font-family:Arial;-inkscape-font-specification:'Arial, Bold';font-variant-ligatures:normal;font-variant-caps:normal;font-variant-numeric:normal;font-feature-settings:normal;text-align:start;letter-spacing:6px;writing-mode:lr-tb;text-anchor:start;fill:#323743;fill-opacity:0.97647059"
               id="path4526" />
            <path
               d="m 206.21253,104.95872 v -9.515628 h -3.39844 v -1.9375 h 9.10157 v 1.9375 h -3.39063 v 9.515628 z"
               style="font-style:normal;font-variant:normal;font-weight:bold;font-stretch:normal;font-size:16px;font-family:Arial;-inkscape-font-specification:'Arial, Bold';font-variant-ligatures:normal;font-variant-caps:normal;font-variant-numeric:normal;font-feature-settings:normal;text-align:start;letter-spacing:6px;writing-mode:lr-tb;text-anchor:start;fill:#323743;fill-opacity:0.97647059"
               id="path4528" />
            <path
               d="m 218.79847,101.23215 2.25,-0.21875 q 0.20312,1.13282 0.82031,1.66407 0.625,0.53125 1.67969,0.53125 1.11719,0 1.67969,-0.46875 0.57031,-0.47657 0.57031,-1.10938 0,-0.40625 -0.24219,-0.6875 -0.23437,-0.28906 -0.82812,-0.5 -0.40625,-0.14062 -1.85157,-0.499998 -1.85937,-0.460937 -2.60937,-1.132812 -1.05469,-0.945313 -1.05469,-2.304688 0,-0.875 0.49219,-1.632812 0.5,-0.765625 1.42969,-1.164063 0.9375,-0.398437 2.25781,-0.398437 2.15625,0 3.24219,0.945312 1.09375,0.945313 1.14843,2.523438 l -2.3125,0.101562 q -0.14843,-0.882812 -0.64062,-1.265625 -0.48438,-0.390625 -1.46094,-0.390625 -1.00781,0 -1.57812,0.414063 -0.36719,0.265625 -0.36719,0.710937 0,0.40625 0.34375,0.695313 0.4375,0.367187 2.125,0.765625 1.6875,0.398437 2.49219,0.828125 0.8125,0.421875 1.26562,1.164062 0.46094,0.734373 0.46094,1.820313 0,0.98437 -0.54688,1.84375 -0.54687,0.85937 -1.54687,1.28125 -1,0.41406 -2.49219,0.41406 -2.17187,0 -3.33594,-1 -1.16406,-1.00781 -1.39062,-2.92969 z"
               style="font-style:normal;font-variant:normal;font-weight:bold;font-stretch:normal;font-size:16px;font-family:Arial;-inkscape-font-specification:'Arial, Bold';font-variant-ligatures:normal;font-variant-caps:normal;font-variant-numeric:normal;font-feature-settings:normal;text-align:start;letter-spacing:6px;writing-mode:lr-tb;text-anchor:start;fill:#323743;fill-opacity:0.97647059"
               id="path4530" />
          </g>
        </g>
        <rect
           style="opacity:0.2;fill:#6b4c9f"
           height="21.268293"
           width="1"
           y="4.3658538"
           x="41"
           id="Line" />
        <g
           id="Logo">
          <path
             style="fill:#39b54a"
             inkscape:connector-curvature="0"
             id="Combined-Shape"
             d="M 9.6451613,6.5853658 V 5.1219512 H 0 V 1.4634146 H 9.6451613 V 0 H 13.354839 V 1.4634146 H 23 V 5.1219512 H 13.354839 V 6.5853658 H 23 V 10.243902 H 0 V 6.5853658 Z" />
          <path
             style="fill:#6b4c9f"
             inkscape:connector-curvature="0"
             id="Shape"
             d="m 23,11.707317 c -0.214097,5.133194 -1.168376,9.215769 -2.862263,11.91202 C 18.44322,26.316146 15.559777,28.331503 11.5,30 7.4395938,28.331503 4.5561501,26.316146 2.8622629,23.619337 1.1678033,20.923086 0.21352481,16.840511 0,11.707317 h 4.1279556 c -0.080143,3.817133 0.4825775,6.884781 1.6887351,9.201828 1.2067301,2.317605 3.1049829,4.00785 5.6833093,5.070736 2.577754,-1.062886 4.476579,-2.753131 5.682737,-5.070736 1.206157,-2.317047 1.769451,-5.384695 1.688735,-9.201828 z" />
        </g>
      </g>
    </g>
  </g>
</svg>
