<?xml version="1.0" encoding="UTF-8"?>
<svg width="189px" height="30px" viewBox="0 0 189 30" version="1.1" xmlns="http://www.w3.org/2000/svg" xmlns:xlink="http://www.w3.org/1999/xlink">
    <!-- Generator: sketchtool 50.2 (55047) - http://www.bohemiancoding.com/sketch -->
    <title>3843F0C8-C281-4FA9-B377-02A54A8AAEDA@2x</title>
    <desc>Created with sketchtool.</desc>
    <defs/>
    <g id="Design" stroke="none" stroke-width="1" fill="none" fill-rule="evenodd">
        <g id="04-Dashboard" transform="translate(-35.000000, -37.000000)">
            <g id="Sidebar" transform="translate(16.000000, 37.000000)">
                <g id="Header" transform="translate(19.000000, 0.000000)">
                    <g id="Product-Logo">
                        <path d="M77.444878,9.80487805 L73.8702439,20.7317073 L71.1541463,20.7317073 L68.7502439,13.3326829 L66.2682927,20.7317073 L63.5678049,20.7317073 L59.977561,9.80487805 L62.6,9.80487805 L65.0663415,17.484878 L67.6419512,9.80487805 L69.9834146,9.80487805 L72.4809756,17.5473171 L75.0253659,9.80487805 L77.444878,9.80487805 Z M97.6868293,18.3902439 L92.6136585,18.3902439 L91.6458537,20.7317073 L89.0546341,20.7317073 L93.924878,9.80487805 L96.422439,9.80487805 L101.308293,20.7317073 L98.6546341,20.7317073 L97.6868293,18.3902439 Z M96.8907317,16.4702439 L95.1580488,12.2868293 L93.4253659,16.4702439 L96.8907317,16.4702439 Z M114.447805,9.80487805 L116.976585,9.80487805 L116.976585,18.6712195 L122.45561,18.6712195 L122.45561,20.7317073 L114.447805,20.7317073 L114.447805,9.80487805 Z M135.876098,9.80487805 L138.404878,9.80487805 L138.404878,18.6712195 L143.883902,18.6712195 L143.883902,20.7317073 L135.876098,20.7317073 L135.876098,9.80487805 Z M165.764878,18.702439 L165.764878,20.7317073 L157.30439,20.7317073 L157.30439,9.80487805 L165.561951,9.80487805 L165.561951,11.8341463 L159.817561,11.8341463 L159.817561,14.2068293 L164.890732,14.2068293 L164.890732,16.1736585 L159.817561,16.1736585 L159.817561,18.702439 L165.764878,18.702439 Z M182.041951,11.8653659 L178.545366,11.8653659 L178.545366,9.80487805 L188.067317,9.80487805 L188.067317,11.8653659 L184.570732,11.8653659 L184.570732,20.7317073 L182.041951,20.7317073 L182.041951,11.8653659 Z" id="Wallet" fill="#323743"/>
                        <rect id="Line" fill="#6B4C9F" opacity="0.200000003" x="41" y="4.36585366" width="1" height="21.2682927"/>
                        <g id="Logo">
                            <path d="M9.64516129,6.58536585 L9.64516129,5.12195122 L0,5.12195122 L0,1.46341463 L9.64516129,1.46341463 L9.64516129,0 L13.3548387,0 L13.3548387,1.46341463 L23,1.46341463 L23,5.12195122 L13.3548387,5.12195122 L13.3548387,6.58536585 L23,6.58536585 L23,10.2439024 L0,10.2439024 L0,6.58536585 L9.64516129,6.58536585 Z" id="Combined-Shape" fill="#39B54A"/>
                            <path d="M23,11.7073171 C22.7859027,16.8405106 21.8316243,20.9230863 20.1377371,23.6193373 C18.4432202,26.316146 15.5597765,28.331503 11.5,30 C7.43959381,28.331503 4.55615013,26.316146 2.86226293,23.6193373 C1.16780328,20.9230863 0.213524815,16.8405106 0,11.7073171 L4.1279556,11.7073171 C4.04781224,15.5244501 4.61053313,18.5920978 5.81669073,20.909145 C7.02342078,23.2267498 8.92167355,24.9169952 11.5,25.9798814 C14.077754,24.9169952 15.9765792,23.2267498 17.1827368,20.909145 C18.3888944,18.5920978 18.9521878,15.5244501 18.8714719,11.7073171 L23,11.7073171 Z" id="Shape" fill="#6B4C9F"/>
                        </g>
                    </g>
                </g>
            </g>
        </g>
    </g>
</svg>