<?xml version="1.0" encoding="UTF-8" standalone="no"?>
<!-- Created with Inkscape (http://www.inkscape.org/) -->

<svg
   xmlns:dc="http://purl.org/dc/elements/1.1/"
   xmlns:cc="http://creativecommons.org/ns#"
   xmlns:rdf="http://www.w3.org/1999/02/22-rdf-syntax-ns#"
   xmlns:svg="http://www.w3.org/2000/svg"
   xmlns="http://www.w3.org/2000/svg"
   xmlns:sodipodi="http://sodipodi.sourceforge.net/DTD/sodipodi-0.dtd"
   xmlns:inkscape="http://www.inkscape.org/namespaces/inkscape"
   width="34.904301mm"
   height="3.1357501mm"
   viewBox="0 0 34.904301 3.1357501"
   version="1.1"
   id="svg4524"
   inkscape:version="0.92.1 r15371"
   sodipodi:docname="text_accounts.svg">
  <defs
     id="defs4518" />
  <sodipodi:namedview
     id="base"
     pagecolor="#ffffff"
     bordercolor="#666666"
     borderopacity="1.0"
     inkscape:pageopacity="0.0"
     inkscape:pageshadow="2"
     inkscape:zoom="0.35"
     inkscape:cx="-608.3248"
     inkscape:cy="-5.502778"
     inkscape:document-units="mm"
     inkscape:current-layer="layer1"
     showgrid="false"
     inkscape:window-width="1366"
     inkscape:window-height="704"
     inkscape:window-x="0"
     inkscape:window-y="27"
     inkscape:window-maximized="1" />
  <metadata
     id="metadata4521">
    <rdf:RDF>
      <cc:Work
         rdf:about="">
        <dc:format>image/svg+xml</dc:format>
        <dc:type
           rdf:resource="http://purl.org/dc/dcmitype/StillImage" />
        <dc:title></dc:title>
      </cc:Work>
    </rdf:RDF>
  </metadata>
  <g
     inkscape:label="Layer 1"
     inkscape:groupmode="layer"
     id="layer1"
     transform="translate(-112.57165,-144.24164)">
    <path
       inkscape:connector-curvature="0"
       d="m 115.61229,147.32364 h -0.6656 l -0.26458,-0.68833 h -1.2113 l -0.25011,0.68833 h -0.64905 l 1.18028,-3.0303 h 0.64699 z m -1.12655,-1.19889 -0.41755,-1.12448 -0.40927,1.12448 z"
       style="font-style:normal;font-variant:normal;font-weight:bold;font-stretch:normal;font-size:16px;line-height:1.25;font-family:Arial;-inkscape-font-specification:'Arial, Bold';font-variant-ligatures:normal;font-variant-caps:normal;font-variant-numeric:normal;font-feature-settings:normal;text-align:start;letter-spacing:6px;word-spacing:0px;writing-mode:lr-tb;text-anchor:start;fill:#323743;fill-opacity:0.97647059;fill-rule:evenodd;stroke:none;stroke-width:0.26458332"
       id="path4516" />
    <path
       inkscape:connector-curvature="0"
       d="m 119.47355,146.2095 0.59324,0.1881 q -0.13642,0.4961 -0.45475,0.73794 -0.31626,0.23978 -0.80408,0.23978 -0.60358,0 -0.99219,-0.41134 -0.38861,-0.41342 -0.38861,-1.12862 0,-0.75654 0.39068,-1.17409 0.39067,-0.41961 1.02732,-0.41961 0.55604,0 0.90331,0.32866 0.2067,0.19431 0.31006,0.55811 l -0.60565,0.14469 q -0.0537,-0.23564 -0.22531,-0.37207 -0.1695,-0.13642 -0.41341,-0.13642 -0.33693,0 -0.54777,0.24184 -0.20877,0.24185 -0.20877,0.78342 0,0.57464 0.2067,0.81855 0.20671,0.24392 0.53744,0.24392 0.24391,0 0.41961,-0.15503 0.1757,-0.15503 0.25218,-0.48783 z"
       style="font-style:normal;font-variant:normal;font-weight:bold;font-stretch:normal;font-size:16px;line-height:1.25;font-family:Arial;-inkscape-font-specification:'Arial, Bold';font-variant-ligatures:normal;font-variant-caps:normal;font-variant-numeric:normal;font-feature-settings:normal;text-align:start;letter-spacing:6px;word-spacing:0px;writing-mode:lr-tb;text-anchor:start;fill:#323743;fill-opacity:0.97647059;fill-rule:evenodd;stroke:none;stroke-width:0.26458332"
       id="path4518" />
    <path
       inkscape:connector-curvature="0"
       d="m 124.12029,146.2095 0.59325,0.1881 q -0.13643,0.4961 -0.45475,0.73794 -0.31626,0.23978 -0.80409,0.23978 -0.60358,0 -0.99219,-0.41134 -0.3886,-0.41342 -0.3886,-1.12862 0,-0.75654 0.39067,-1.17409 0.39067,-0.41961 1.02733,-0.41961 0.55604,0 0.9033,0.32866 0.20671,0.19431 0.31006,0.55811 l -0.60565,0.14469 q -0.0537,-0.23564 -0.22531,-0.37207 -0.16949,-0.13642 -0.41341,-0.13642 -0.33693,0 -0.54777,0.24184 -0.20877,0.24185 -0.20877,0.78342 0,0.57464 0.20671,0.81855 0.2067,0.24392 0.53743,0.24392 0.24391,0 0.41961,-0.15503 0.1757,-0.15503 0.25218,-0.48783 z"
       style="font-style:normal;font-variant:normal;font-weight:bold;font-stretch:normal;font-size:16px;line-height:1.25;font-family:Arial;-inkscape-font-specification:'Arial, Bold';font-variant-ligatures:normal;font-variant-caps:normal;font-variant-numeric:normal;font-feature-settings:normal;text-align:start;letter-spacing:6px;word-spacing:0px;writing-mode:lr-tb;text-anchor:start;fill:#323743;fill-opacity:0.97647059;fill-rule:evenodd;stroke:none;stroke-width:0.26458332"
       id="path4520" />
    <path
       inkscape:connector-curvature="0"
       d="m 126.70412,145.82709 q 0,-0.46302 0.13849,-0.77721 0.10335,-0.23151 0.28112,-0.41548 0.17983,-0.18397 0.39274,-0.27285 0.28319,-0.11989 0.65319,-0.11989 0.66973,0 1.07073,0.41548 0.40308,0.41548 0.40308,1.15548 0,0.73381 -0.39894,1.14929 -0.39894,0.41341 -1.0666,0.41341 -0.67593,0 -1.07487,-0.41134 -0.39894,-0.41342 -0.39894,-1.13689 z m 0.63045,-0.0207 q 0,0.5147 0.23771,0.78135 0.23771,0.26458 0.60358,0.26458 0.36587,0 0.59945,-0.26251 0.23564,-0.26459 0.23564,-0.79169 0,-0.52089 -0.22944,-0.77721 -0.22738,-0.25631 -0.60565,-0.25631 -0.37827,0 -0.60978,0.26044 -0.23151,0.25839 -0.23151,0.78135 z"
       style="font-style:normal;font-variant:normal;font-weight:bold;font-stretch:normal;font-size:16px;line-height:1.25;font-family:Arial;-inkscape-font-specification:'Arial, Bold';font-variant-ligatures:normal;font-variant-caps:normal;font-variant-numeric:normal;font-feature-settings:normal;text-align:start;letter-spacing:6px;word-spacing:0px;writing-mode:lr-tb;text-anchor:start;fill:#323743;fill-opacity:0.97647059;fill-rule:evenodd;stroke:none;stroke-width:0.26458332"
       id="path4522" />
    <path
       inkscape:connector-curvature="0"
       d="m 131.70226,144.29334 h 0.61185 v 1.64124 q 0,0.39067 0.0227,0.50643 0.0393,0.18603 0.18603,0.29972 0.14883,0.11163 0.40515,0.11163 0.26045,0 0.39274,-0.10543 0.13229,-0.10748 0.15916,-0.26251 0.0269,-0.15503 0.0269,-0.5147 v -1.67638 h 0.61185 v 1.59163 q 0,0.54571 -0.0496,0.77101 -0.0496,0.22531 -0.18397,0.38034 -0.13229,0.15503 -0.35553,0.24805 -0.22324,0.0909 -0.58291,0.0909 -0.43408,0 -0.65939,-0.0992 -0.22324,-0.10128 -0.35347,-0.26045 -0.13023,-0.16123 -0.17157,-0.33693 -0.0599,-0.26045 -0.0599,-0.76894 z"
       style="font-style:normal;font-variant:normal;font-weight:bold;font-stretch:normal;font-size:16px;line-height:1.25;font-family:Arial;-inkscape-font-specification:'Arial, Bold';font-variant-ligatures:normal;font-variant-caps:normal;font-variant-numeric:normal;font-feature-settings:normal;text-align:start;letter-spacing:6px;word-spacing:0px;writing-mode:lr-tb;text-anchor:start;fill:#323743;fill-opacity:0.97647059;fill-rule:evenodd;stroke:none;stroke-width:0.26458332"
       id="path4524" />
    <path
       inkscape:connector-curvature="0"
       d="m 136.35934,147.32364 v -3.0303 h 0.59531 l 1.24024,2.02365 v -2.02365 h 0.56844 v 3.0303 h -0.61392 l -1.22163,-1.9761 v 1.9761 z"
       style="font-style:normal;font-variant:normal;font-weight:bold;font-stretch:normal;font-size:16px;line-height:1.25;font-family:Arial;-inkscape-font-specification:'Arial, Bold';font-variant-ligatures:normal;font-variant-caps:normal;font-variant-numeric:normal;font-feature-settings:normal;text-align:start;letter-spacing:6px;word-spacing:0px;writing-mode:lr-tb;text-anchor:start;fill:#323743;fill-opacity:0.97647059;fill-rule:evenodd;stroke:none;stroke-width:0.26458332"
       id="path4526" />
    <path
       inkscape:connector-curvature="0"
       d="m 141.68201,147.32364 v -2.51767 h -0.89917 v -0.51263 h 2.40813 v 0.51263 h -0.89711 v 2.51767 z"
       style="font-style:normal;font-variant:normal;font-weight:bold;font-stretch:normal;font-size:16px;line-height:1.25;font-family:Arial;-inkscape-font-specification:'Arial, Bold';font-variant-ligatures:normal;font-variant-caps:normal;font-variant-numeric:normal;font-feature-settings:normal;text-align:start;letter-spacing:6px;word-spacing:0px;writing-mode:lr-tb;text-anchor:start;fill:#323743;fill-opacity:0.97647059;fill-rule:evenodd;stroke:none;stroke-width:0.26458332"
       id="path4528" />
    <path
       inkscape:connector-curvature="0"
       d="m 145.01204,146.33766 0.59532,-0.0579 q 0.0537,0.29972 0.21704,0.44028 0.16536,0.14056 0.44441,0.14056 0.29559,0 0.44442,-0.12402 0.15089,-0.12609 0.15089,-0.29352 0,-0.10749 -0.0641,-0.1819 -0.062,-0.0765 -0.2191,-0.1323 -0.10749,-0.0372 -0.48989,-0.13229 -0.49197,-0.12195 -0.6904,-0.29972 -0.27906,-0.25011 -0.27906,-0.60978 0,-0.23151 0.13023,-0.43202 0.13229,-0.20257 0.37827,-0.30799 0.24805,-0.10542 0.59738,-0.10542 0.57051,0 0.85783,0.25012 0.28939,0.25011 0.30386,0.66765 l -0.61185,0.0269 q -0.0393,-0.23358 -0.1695,-0.33487 -0.12816,-0.10335 -0.38654,-0.10335 -0.26665,0 -0.41755,0.10955 -0.0971,0.0703 -0.0971,0.18811 0,0.10748 0.0909,0.18396 0.11576,0.0972 0.56224,0.20258 0.44649,0.10542 0.6594,0.2191 0.21497,0.11163 0.33486,0.308 0.12195,0.1943 0.12195,0.48162 0,0.26045 -0.14469,0.48783 -0.14469,0.22737 -0.40928,0.33899 -0.26458,0.10956 -0.65939,0.10956 -0.57464,0 -0.88263,-0.26459 -0.30799,-0.26665 -0.36794,-0.77514 z"
       style="font-style:normal;font-variant:normal;font-weight:bold;font-stretch:normal;font-size:16px;line-height:1.25;font-family:Arial;-inkscape-font-specification:'Arial, Bold';font-variant-ligatures:normal;font-variant-caps:normal;font-variant-numeric:normal;font-feature-settings:normal;text-align:start;letter-spacing:6px;word-spacing:0px;writing-mode:lr-tb;text-anchor:start;fill:#323743;fill-opacity:0.97647059;fill-rule:evenodd;stroke:none;stroke-width:0.26458332"
       id="path4530" />
  </g>
</svg>
